<?xml version="1.0" standalone="no"?>
<!DOCTYPE svg PUBLIC "-//W3C//DTD SVG 20010904//EN"
 "http://www.w3.org/TR/2001/REC-SVG-20010904/DTD/svg10.dtd">
<svg version="1.0" xmlns="http://www.w3.org/2000/svg"
 width="1018.000000pt" height="1280.000000pt" viewBox="0 0 1018.000000 1280.000000"
 preserveAspectRatio="xMidYMid meet">
<metadata>
Created by potrace 1.15, written by Peter Selinger 2001-2017
</metadata>
<g transform="translate(0.000000,1280.000000) scale(0.100000,-0.100000)"
fill="#000000" stroke="none">
<path d="M4300 12784 c-432 -40 -689 -159 -1042 -482 -72 -67 -189 -142 -219
-142 -26 0 -264 -83 -344 -119 -228 -106 -360 -218 -550 -466 -55 -71 -145
-186 -201 -255 -55 -69 -143 -183 -195 -255 -52 -71 -135 -172 -184 -225 -50
-52 -109 -116 -130 -141 -22 -25 -102 -113 -179 -195 -147 -159 -230 -275
-319 -444 -69 -131 -100 -209 -192 -480 -97 -286 -137 -380 -234 -540 -238
-393 -365 -718 -435 -1115 -54 -299 -88 -814 -67 -987 17 -139 31 -662 21
-818 -4 -69 -4 -148 0 -175 19 -121 229 -836 279 -954 16 -36 70 -140 120
-231 144 -260 153 -286 162 -465 8 -171 30 -292 89 -497 85 -295 131 -417 250
-653 73 -146 138 -294 178 -405 35 -96 99 -272 143 -390 43 -118 110 -303 148
-410 85 -241 99 -276 157 -392 62 -125 132 -239 199 -323 65 -81 318 -323 420
-400 164 -124 624 -383 906 -511 126 -56 558 -201 764 -255 83 -22 168 -45
190 -50 55 -15 307 -4 368 15 80 25 165 76 240 144 90 80 111 114 126 203 6
38 25 111 42 162 30 89 30 96 24 207 -10 174 18 271 121 416 46 66 65 79 83
61 17 -17 13 -72 -15 -234 -21 -124 -25 -172 -22 -293 3 -137 5 -148 33 -205
59 -120 198 -222 370 -274 145 -44 251 -53 636 -58 348 -5 371 -4 450 16 139
35 167 52 701 408 117 79 265 178 328 221 63 44 171 112 240 152 157 91 214
133 319 234 115 112 190 210 342 453 130 205 190 318 223 420 9 28 42 89 72
135 96 146 249 481 333 727 67 195 111 438 131 725 14 191 21 237 61 387 29
109 37 128 79 178 260 314 586 998 649 1366 36 207 54 661 40 1012 l-9 243 35
143 c19 79 58 215 87 303 l52 159 4 199 c8 378 -30 528 -211 846 -42 74 -84
159 -92 190 -37 134 -151 468 -208 610 -116 284 -141 326 -423 696 -107 140
-228 282 -355 414 -69 73 -115 135 -194 263 -173 280 -356 523 -590 782 -65
72 -138 160 -162 197 -24 37 -58 78 -76 92 -18 13 -113 68 -212 121 -229 124
-332 190 -528 337 -316 238 -526 352 -802 436 -273 84 -411 67 -600 -72 -163
-120 -293 -277 -355 -427 -51 -122 -160 -528 -160 -594 0 -22 16 -65 44 -118
60 -112 70 -164 62 -305 -13 -223 -53 -357 -124 -425 l-30 -29 -21 23 c-41 45
-58 115 -70 304 -7 99 -16 196 -21 215 -5 19 -14 109 -20 200 -38 573 -97 848
-248 1149 -92 183 -101 200 -120 209 -23 13 -182 52 -201 51 -9 -1 -81 -8
-161 -15z m-320 -348 c140 -55 157 -58 304 -65 l139 -7 48 -54 c92 -104 127
-155 161 -240 51 -125 105 -310 128 -434 23 -133 60 -214 107 -236 27 -12 33
-21 33 -48 l0 -32 -37 15 c-21 9 -58 29 -83 45 -42 27 -180 66 -180 51 0 -3
18 -19 40 -35 47 -35 84 -105 77 -143 -4 -23 6 -39 66 -101 40 -41 84 -80 100
-88 27 -14 27 -16 27 -110 0 -53 -3 -94 -7 -92 -117 59 -144 68 -214 74 -75 7
-76 6 -113 -26 -21 -18 -45 -49 -54 -69 -20 -42 -61 -56 -141 -48 -66 7 -170
57 -204 97 -14 16 -33 51 -42 77 -32 94 -68 153 -115 193 -47 39 -70 49 -70
31 0 -6 23 -36 50 -67 36 -41 56 -75 70 -122 11 -35 20 -66 20 -69 0 -2 -20
-1 -45 3 -42 6 -103 -1 -93 -12 3 -2 30 -11 62 -19 63 -17 139 -53 204 -97 24
-17 71 -42 105 -56 57 -24 74 -27 199 -27 126 0 139 2 167 23 37 27 49 27 125
0 102 -36 100 -31 93 -191 -5 -90 -12 -147 -21 -166 -15 -28 -118 -129 -161
-157 -17 -11 -29 -12 -49 -4 -45 17 -105 1 -241 -65 -71 -34 -144 -66 -161
-69 -52 -11 -97 16 -201 122 -62 63 -117 109 -150 126 -29 14 -53 23 -53 19 0
-5 41 -42 91 -83 60 -50 103 -96 129 -136 91 -144 197 -177 349 -109 51 23 66
26 86 17 19 -9 34 -8 66 3 59 21 199 10 242 -19 59 -40 72 -78 71 -201 -2
-128 -17 -194 -73 -325 -45 -105 -77 -144 -139 -172 -74 -33 -181 -9 -306 69
-19 12 -30 14 -33 7 -2 -7 -51 35 -109 93 -101 100 -139 126 -96 66 11 -15 43
-74 71 -130 58 -116 60 -138 40 -334 -10 -92 -9 -110 5 -137 9 -17 25 -36 36
-42 29 -16 70 32 127 149 35 70 57 101 86 122 38 28 44 29 154 29 79 0 122 -4
142 -14 47 -25 96 -89 131 -172 30 -70 34 -90 35 -169 0 -101 -15 -142 -78
-209 -41 -43 -53 -45 -62 -8 -10 48 -48 100 -105 142 -63 47 -80 36 -27 -18
44 -47 73 -104 82 -164 10 -66 -20 -125 -97 -189 l-59 -49 -168 0 c-125 0
-181 4 -222 16 -34 10 -71 14 -101 11 -40 -5 -48 -3 -60 15 -16 24 -38 17 -38
-11 0 -29 36 -53 91 -62 49 -8 259 -105 259 -120 0 -11 -92 -66 -247 -145
-150 -77 -223 -104 -283 -104 -50 0 -144 -26 -216 -59 -110 -51 -386 -247
-419 -297 -9 -14 -63 -47 -133 -81 l-117 -58 -145 0 c-139 0 -147 1 -199 28
-66 34 -276 203 -338 271 -25 28 -66 86 -91 129 -24 42 -48 77 -52 77 -4 0
-31 -40 -59 -88 -46 -78 -136 -204 -366 -512 -124 -166 -268 -305 -417 -403
-57 -37 -80 -58 -88 -81 -6 -18 -9 -120 -8 -241 1 -180 -2 -225 -20 -312 -12
-57 -25 -152 -28 -212 -7 -108 -7 -109 19 -135 14 -14 35 -26 47 -26 24 0 110
76 110 97 0 8 -13 33 -29 56 -47 70 -53 104 -53 300 -1 339 42 433 333 732 75
77 143 154 152 171 23 45 128 138 189 168 182 89 445 38 639 -125 58 -48 176
-85 239 -74 70 12 224 91 489 250 280 167 376 217 505 260 147 49 383 104 602
140 331 55 317 45 488 347 29 52 60 67 96 48 30 -16 37 -43 29 -114 -4 -33
-10 -149 -14 -256 -4 -107 -8 -196 -10 -198 -1 -2 -23 18 -48 45 -25 26 -49
45 -52 41 -9 -9 -3 -22 40 -82 68 -94 79 -200 52 -496 -9 -96 -17 -212 -17
-257 0 -92 0 -91 -83 -153 -32 -24 -46 -41 -44 -55 3 -29 37 -29 77 0 l35 26
3 -272 2 -271 -25 -46 c-82 -146 -254 -344 -343 -394 -28 -17 -61 -42 -72 -56
-12 -15 -40 -51 -63 -80 -90 -113 -105 -179 -72 -302 24 -87 41 -375 27 -445
-7 -32 -10 -60 -7 -63 2 -3 14 17 26 44 15 33 26 89 34 175 12 123 13 129 61
215 52 94 87 126 158 145 89 24 208 -18 271 -96 116 -143 141 -291 151 -905 5
-343 4 -421 -9 -505 -9 -55 -19 -143 -22 -195 -11 -178 -45 -300 -134 -486
-64 -132 -80 -150 -171 -179 -30 -10 -68 -25 -85 -33 -52 -27 -92 -30 -167
-16 -40 8 -110 14 -155 14 -89 0 -108 -9 -119 -58 -14 -62 -28 -99 -50 -125
-27 -32 -39 -69 -30 -92 9 -25 50 -17 114 25 103 66 195 105 372 156 102 29
144 30 169 5 37 -37 38 -224 1 -322 -23 -62 -193 -310 -243 -355 -82 -75 -253
-132 -474 -159 -174 -22 -545 -16 -653 9 -151 36 -195 52 -198 73 -11 71 135
506 248 743 l79 165 -14 65 c-8 36 -14 75 -15 88 0 51 187 257 349 382 63 48
37 48 -55 -1 -106 -57 -154 -90 -246 -171 -42 -37 -81 -68 -85 -68 -5 0 -30
45 -57 100 -26 55 -74 136 -105 180 -296 418 -398 595 -490 850 -50 137 -57
147 -82 124 -31 -28 -41 -81 -43 -228 l-1 -142 40 -80 c189 -370 378 -725 431
-804 95 -145 99 -159 99 -336 -1 -151 -1 -152 -28 -185 -61 -75 -142 -206
-193 -315 l-55 -116 -37 7 c-20 3 -64 21 -97 39 -76 41 -115 96 -145 208 -25
96 -62 169 -106 214 -27 27 -44 33 -115 45 -149 23 -489 11 -549 -20 -38 -20
-90 -73 -90 -91 0 -22 30 -49 68 -59 27 -8 39 -4 97 34 110 73 144 80 335 77
186 -4 202 -9 220 -69 15 -52 24 -173 16 -215 -10 -53 -60 -122 -134 -183 -67
-55 -174 -117 -225 -129 -15 -4 -31 -14 -34 -22 -12 -31 13 -33 82 -7 61 23
85 27 195 27 l125 1 85 -44 c74 -39 94 -45 154 -47 43 -1 72 -7 76 -15 17 -27
-63 -192 -128 -261 -56 -60 -171 -133 -234 -149 -27 -6 -48 -14 -48 -16 0 -3
29 -57 65 -120 36 -63 65 -121 65 -129 0 -7 -15 -21 -32 -31 -40 -20 -170 -22
-237 -4 -57 16 -63 7 -12 -19 89 -45 223 -61 321 -38 18 4 80 -110 115 -212
35 -105 54 -214 62 -351 l6 -118 -28 -7 c-80 -20 -264 25 -420 104 -166 83
-278 178 -531 446 -87 93 -172 175 -189 182 -27 11 -39 31 -89 145 -33 73 -92
223 -133 333 -41 111 -106 281 -145 379 -38 98 -68 181 -65 184 3 3 37 -27 76
-66 47 -48 78 -71 94 -71 12 0 52 -19 87 -42 35 -22 98 -57 139 -76 68 -32 87
-36 176 -40 72 -3 97 -1 90 7 -6 6 -49 12 -96 14 -78 3 -92 7 -163 45 -102 55
-177 114 -264 207 -89 95 -123 163 -129 253 -3 55 -1 73 16 99 24 38 192 136
300 174 93 33 105 53 75 126 -34 82 -84 73 -151 -27 -25 -39 -51 -70 -57 -71
-57 -5 -284 5 -303 14 -13 6 -46 43 -73 83 -45 66 -57 98 -150 400 -56 181
-104 338 -107 349 -3 12 22 -6 63 -46 38 -36 83 -73 100 -82 40 -21 45 -34 37
-107 -6 -57 -5 -60 21 -69 17 -7 35 -7 52 -1 24 9 25 14 19 50 -9 55 12 62 76
26 38 -21 60 -26 96 -24 26 2 48 9 51 15 3 12 -84 57 -202 104 -75 30 -152 86
-233 169 -96 97 -145 170 -177 266 -23 69 -24 79 -11 94 21 23 19 56 -11 172
-26 105 -60 183 -100 231 -38 46 -47 98 -30 167 27 105 65 137 151 128 26 -3
42 -2 39 4 -3 5 -74 42 -157 84 -153 75 -294 167 -329 214 -10 14 -39 95 -64
180 -36 121 -44 163 -39 196 6 42 61 161 111 241 24 39 25 43 8 50 -11 4 -41
-6 -80 -26 -35 -18 -67 -30 -73 -27 -5 3 -17 40 -26 82 -14 62 -16 103 -10
228 4 83 13 183 21 221 29 145 135 371 249 530 36 50 65 94 65 100 0 5 -14 24
-32 42 -45 46 -95 46 -162 -2 -28 -19 -53 -32 -57 -28 -9 10 16 500 30 598 6
39 17 88 26 110 8 22 14 47 15 56 0 22 66 184 107 262 20 38 55 85 79 106 51
44 173 108 226 117 34 6 37 4 40 -23 3 -24 14 -34 79 -68 95 -48 109 -43 109
45 0 63 -6 71 -78 110 -23 13 -42 27 -42 30 0 4 34 21 76 40 74 32 184 105
184 122 0 16 -27 8 -94 -27 -36 -20 -100 -49 -142 -66 -64 -26 -80 -29 -106
-20 -17 6 -59 11 -94 11 -60 0 -64 1 -70 26 -9 35 1 138 21 214 9 34 48 130
86 213 66 142 75 155 159 243 138 145 161 192 190 399 l19 130 48 43 c68 62
172 129 245 159 83 35 255 45 323 18 54 -20 100 -71 115 -125 15 -56 -3 -180
-41 -283 -30 -81 -36 -156 -14 -164 6 -2 43 56 82 129 57 108 80 141 120 173
130 105 129 104 114 113 -7 6 -35 13 -62 16 -59 8 -69 23 -62 94 4 32 1 69 -7
93 -17 50 -5 102 46 202 38 76 29 88 -26 32 -21 -22 -42 -59 -56 -102 -15 -46
-27 -67 -36 -64 -71 21 -118 31 -148 31 -86 1 -156 63 -181 162 -18 76 -7 104
81 205 142 161 254 231 475 298 66 21 152 52 190 70 39 18 88 38 111 44 22 6
49 20 59 31 16 18 16 20 2 26 -9 3 -70 -4 -136 -16 -173 -30 -231 -9 -249 91
-15 84 0 120 89 206 96 92 161 172 218 268 104 170 124 191 328 322 104 67
209 131 233 142 44 20 80 27 80 15 0 -3 -22 -43 -50 -88 -60 -100 -71 -144
-79 -311 l-6 -130 -90 -7 c-149 -13 -299 -49 -279 -68 5 -5 55 -2 119 7 139
18 259 13 317 -16 34 -16 53 -37 90 -96 47 -74 70 -91 82 -59 10 25 -40 124
-86 171 l-41 42 38 15 c66 28 137 47 259 70 66 12 116 25 110 28 -5 3 -33 11
-63 18 -72 17 -170 8 -258 -22 -40 -14 -74 -24 -77 -21 -7 8 22 83 51 128 26
42 111 104 170 123 67 22 149 104 137 136 -9 23 -22 20 -120 -24 -60 -28 -96
-39 -113 -35 -14 3 -39 -2 -55 -10 -16 -8 -31 -14 -33 -11 -2 2 24 46 59 97
51 76 76 102 127 136 36 23 78 56 95 72 34 32 185 111 214 111 32 0 49 -49 56
-165 8 -123 28 -184 92 -285 41 -64 69 -80 109 -62 34 16 52 107 35 177 -7 27
-16 68 -20 89 -9 46 5 285 20 336 14 50 67 130 85 130 9 0 56 -15 105 -34z
m773 -83 c2 -10 19 -65 36 -123 40 -137 59 -230 71 -348 6 -54 13 -108 16
-122 3 -15 2 -21 -4 -15 -5 6 -16 44 -24 85 -9 41 -37 132 -62 202 -69 189
-92 282 -78 313 13 29 37 33 45 8z m1287 -38 c19 -10 118 -100 220 -199 113
-111 216 -202 264 -234 85 -57 244 -137 253 -128 7 6 -50 69 -191 208 -86 86
-136 156 -136 192 0 26 69 41 195 41 106 0 125 -3 165 -23 69 -35 163 -133
417 -427 316 -368 319 -373 327 -421 3 -22 14 -61 25 -85 18 -42 61 -240 61
-285 0 -11 -18 -50 -40 -87 -22 -36 -40 -73 -40 -82 0 -33 -48 -39 -290 -38
-268 1 -373 14 -538 69 -120 40 -227 88 -333 149 -41 25 -90 48 -108 51 -17 4
-48 12 -67 19 -41 14 -112 5 -125 -16 -23 -36 -4 -53 116 -106 71 -33 106 -42
170 -47 148 -11 354 -71 560 -163 81 -36 118 -46 195 -55 53 -5 161 -29 245
-53 83 -24 188 -53 235 -65 174 -44 190 -50 246 -101 60 -54 105 -65 124 -30
17 34 11 50 -37 102 l-46 49 -2 143 c-1 129 -4 149 -29 217 -37 98 -97 217
-157 310 -60 95 -89 168 -89 227 0 68 18 83 97 83 69 0 126 -22 174 -66 16
-15 40 -26 63 -28 43 -3 24 18 243 -261 87 -110 183 -227 214 -261 70 -75 99
-147 107 -263 l5 -84 -29 7 c-16 3 -77 9 -136 13 -94 5 -108 4 -108 -10 0 -19
8 -22 140 -42 58 -9 112 -21 121 -28 246 -184 266 -203 343 -322 110 -169 149
-236 141 -243 -4 -4 -91 -10 -193 -15 -315 -12 -334 -14 -417 -40 l-80 -24 -7
57 c-4 32 -16 77 -28 99 -22 45 -23 45 40 55 46 8 92 37 109 69 20 38 7 44
-44 19 -82 -40 -140 -26 -200 48 -37 46 -65 63 -65 40 0 -5 16 -39 35 -76 19
-36 35 -78 35 -94 0 -41 -17 -80 -34 -80 -25 0 -46 -42 -46 -92 0 -27 -2 -48
-5 -48 -3 0 -24 19 -47 42 -60 60 -59 31 1 -58 28 -42 51 -86 51 -99 0 -13
-17 -66 -37 -117 -39 -96 -86 -155 -188 -235 -33 -25 -38 -34 -30 -48 13 -22
129 -68 252 -100 140 -37 208 -73 278 -147 74 -77 141 -165 183 -238 17 -31
45 -69 62 -85 41 -40 63 -82 56 -109 -3 -12 -19 -35 -36 -51 -31 -29 -33 -30
-123 -27 l-92 3 -33 -34 -32 -33 89 4 c108 5 153 -8 203 -58 61 -63 150 -125
213 -150 33 -13 183 -106 333 -206 260 -174 307 -202 319 -191 17 18 -107 123
-308 262 l-139 96 0 41 c0 27 -15 71 -45 136 -25 52 -45 103 -45 114 0 36 -19
55 -124 118 -138 83 -188 128 -272 246 -38 54 -90 123 -117 154 -37 43 -54 76
-79 151 -17 53 -29 103 -25 112 3 9 40 35 81 57 82 45 95 57 73 66 -12 4 -48
-8 -154 -53 -26 -10 -12 362 14 388 10 10 205 69 227 69 7 0 17 7 20 16 6 15
25 16 179 9 242 -10 222 3 406 -247 83 -111 164 -218 179 -236 29 -36 146
-296 186 -416 23 -69 38 -153 51 -279 5 -40 14 -66 32 -87 45 -54 201 -736
174 -763 -4 -4 -42 4 -84 18 -80 26 -113 30 -136 16 -10 -6 10 -20 70 -48 118
-56 185 -110 236 -190 39 -62 43 -74 43 -134 0 -62 -3 -71 -44 -130 -75 -111
-154 -287 -210 -469 -14 -47 -41 -108 -60 -136 -53 -78 -68 -121 -73 -215 -7
-103 -4 -110 105 -236 75 -86 80 -96 100 -175 30 -119 54 -378 35 -378 -5 0
-21 30 -37 65 -18 40 -45 80 -72 104 -55 51 -153 101 -213 108 -63 7 -152 -19
-194 -57 -37 -34 -23 -39 33 -10 44 22 128 27 163 8 12 -6 48 -31 80 -56 148
-116 178 -351 72 -566 -25 -52 -35 -84 -35 -119 0 -69 -63 -229 -151 -383 -41
-71 -103 -201 -138 -289 -35 -88 -69 -163 -75 -167 -6 -4 -20 -35 -32 -70 -13
-36 -24 -57 -27 -48 -3 8 -17 57 -31 108 -15 52 -42 128 -61 169 -35 76 -42
107 -27 117 5 3 12 65 16 138 4 73 11 153 16 178 5 25 12 100 16 168 5 94 4
122 -5 122 -104 0 -250 11 -301 23 -102 24 -153 50 -325 166 l-160 108 -190 6
c-257 7 -378 34 -560 125 -212 105 -467 300 -680 520 -49 51 -98 109 -108 128
-36 70 -78 254 -84 370 l-6 110 133 197 133 197 -6 78 c-6 82 -41 212 -57 212
-12 0 -12 -2 0 -36 8 -20 7 -31 -4 -43 -8 -9 -30 -51 -50 -95 -45 -98 -91
-176 -175 -293 -62 -86 -75 -97 -201 -182 -222 -149 -283 -207 -519 -485 -40
-47 -71 -89 -68 -93 4 -3 75 11 159 31 174 41 249 45 411 21 56 -9 112 -13
125 -10 47 12 151 -63 330 -239 192 -187 328 -396 410 -628 50 -141 64 -226
63 -392 -1 -174 -5 -201 -41 -281 -54 -122 -89 -109 -91 34 l-1 86 -14 -55
c-27 -108 -38 -255 -26 -347 14 -103 30 -133 73 -133 70 0 107 85 139 316 20
143 22 180 15 364 -14 360 -8 403 63 436 20 9 44 23 54 31 49 43 778 -275 778
-340 0 -7 18 -30 39 -51 86 -84 131 -252 131 -493 0 -191 13 -282 56 -401 19
-52 34 -109 34 -128 0 -18 5 -45 11 -61 6 -15 15 -66 21 -113 5 -47 21 -119
34 -160 13 -41 24 -86 24 -99 0 -51 -45 -117 -152 -222 -117 -115 -129 -140
-89 -190 37 -47 34 -59 -36 -195 -36 -71 -95 -175 -130 -231 -42 -67 -65 -114
-66 -137 -2 -19 -10 -43 -20 -54 -9 -10 -17 -34 -17 -54 0 -35 -1 -35 -101
-81 -55 -26 -111 -47 -122 -47 -12 0 -51 -14 -87 -31 -80 -39 -144 -41 -229
-9 -56 21 -63 21 -118 8 -45 -12 -59 -20 -61 -36 -3 -17 6 -23 51 -36 68 -20
121 -20 136 -2 7 9 46 16 109 21 111 8 215 38 334 96 94 45 108 47 108 18 0
-33 90 -297 107 -314 26 -27 42 1 59 105 28 178 98 443 151 579 23 59 27 84
31 223 4 141 2 162 -15 197 -23 46 -24 43 71 126 38 33 89 90 113 126 l43 67
39 -14 c25 -8 58 -11 85 -8 l44 6 20 -55 c43 -115 64 -218 57 -282 -8 -75 -44
-235 -53 -235 -4 0 -20 20 -35 45 -44 69 -92 98 -126 76 -11 -7 -6 -16 21 -40
41 -36 77 -112 85 -179 4 -38 -3 -70 -37 -172 -41 -119 -153 -386 -169 -403
-4 -4 -18 30 -30 77 -29 109 -63 143 -95 93 -10 -16 -15 -69 -19 -192 -4 -136
-9 -183 -26 -236 -24 -77 -58 -156 -69 -163 -4 -2 -18 15 -31 40 l-24 44 -61
-103 c-34 -56 -85 -136 -112 -177 -28 -41 -77 -118 -109 -170 -33 -52 -91
-137 -131 -190 -83 -109 -325 -351 -399 -397 -85 -54 -194 -84 -354 -98 -79
-8 -148 -18 -153 -23 -6 -6 -8 -18 -6 -28 4 -23 55 -40 148 -51 l65 -8 -105
-64 c-58 -35 -143 -91 -190 -126 -98 -72 -333 -226 -399 -261 -52 -28 -80 -32
-61 -9 7 9 10 18 7 21 -3 3 -59 10 -124 15 -134 10 -189 21 -245 50 -50 26
-128 103 -128 126 1 10 27 54 60 98 32 44 54 82 49 83 -17 7 -133 -88 -196
-160 -35 -39 -63 -74 -63 -78 0 -13 -117 -93 -193 -132 -44 -21 -100 -42 -126
-45 -92 -11 -303 68 -363 135 -58 67 -72 114 -76 252 -3 107 0 141 22 236 19
84 27 152 32 283 4 94 9 171 11 171 2 0 31 -11 64 -25 33 -14 83 -32 112 -39
52 -13 52 -13 69 -72 23 -78 75 -163 117 -191 45 -31 131 -33 131 -4 0 13 -9
21 -31 26 -59 13 -139 124 -143 197 -1 30 2 32 62 52 34 11 62 23 62 26 0 4
-35 10 -78 14 -129 10 -299 67 -383 127 l-32 22 5 163 c2 90 8 167 12 171 4 4
28 -4 54 -19 105 -59 215 -73 289 -37 53 26 57 44 6 22 -74 -30 -267 11 -318
67 -22 25 -15 101 21 227 30 103 43 220 44 390 l0 122 48 -14 c52 -16 192 -21
177 -6 -6 5 -46 19 -90 30 -116 31 -134 40 -142 70 -4 14 -7 89 -7 166 0 127
2 144 23 185 39 74 92 150 115 163 11 6 75 15 141 18 88 4 132 11 165 26 l45
20 -154 7 c-85 4 -162 11 -171 16 -41 22 -126 268 -136 395 -6 73 4 126 63
325 19 65 25 111 27 195 1 103 4 114 34 172 17 34 32 65 32 69 0 3 -18 -8 -39
-25 -21 -17 -42 -31 -45 -31 -4 0 -36 59 -71 131 l-65 132 0 146 c1 261 17
326 123 486 94 144 181 215 263 215 29 0 166 -63 334 -155 49 -26 77 -35 113
-35 58 0 53 11 100 -220 20 -96 57 -236 82 -310 25 -74 68 -207 94 -295 27
-88 57 -174 65 -192 27 -51 46 -177 46 -299 l0 -113 -31 -16 c-30 -16 -125
-149 -174 -245 -24 -46 -76 -100 -222 -229 -46 -40 -83 -77 -83 -82 0 -28 58
3 222 120 19 14 20 13 13 -30 -6 -38 -2 -55 29 -118 43 -90 51 -141 38 -231
-13 -86 -95 -237 -151 -278 -20 -14 -59 -43 -86 -63 -28 -21 -73 -44 -100 -50
-61 -16 -63 -18 -45 -29 33 -21 102 -11 174 25 106 52 192 122 326 263 l120
126 78 -3 c86 -3 88 7 4 34 -57 18 -55 13 -72 132 -29 202 1 385 90 553 6 11
22 14 66 11 32 -1 68 -7 81 -12 13 -5 23 -5 23 0 0 15 -80 69 -119 82 -20 7
-39 17 -43 23 -4 6 -8 56 -8 111 0 129 -17 267 -40 328 -10 27 -50 99 -89 160
-38 62 -75 134 -82 160 -18 73 -6 347 20 481 30 147 79 292 140 414 37 74 51
113 51 144 0 50 -29 114 -70 153 -25 24 -38 28 -88 29 -70 1 -90 -12 -98 -64
-4 -25 -15 -45 -34 -58 -41 -31 -118 -163 -160 -277 -29 -78 -41 -101 -57
-103 -26 -4 -125 43 -217 103 -98 63 -197 102 -296 115 -47 6 -100 19 -119 27
-46 22 -168 144 -226 226 -53 76 -52 63 -16 237 27 133 46 568 37 855 -4 121
-12 387 -17 590 -10 400 -24 778 -35 945 l-6 105 58 120 c33 66 67 145 77 175
15 44 34 70 97 133 99 98 147 121 251 120 98 0 152 -25 274 -122 50 -39 114
-85 143 -101 29 -17 74 -47 100 -67 26 -20 80 -52 120 -71 61 -29 80 -34 123
-30 34 4 58 13 75 29 26 24 54 70 54 87 0 12 -289 260 -338 290 -38 23 -138
56 -275 91 -43 10 -81 21 -83 24 -2 2 5 24 16 48 21 46 26 79 12 79 -5 0 -25
-24 -46 -54 -21 -30 -43 -56 -49 -59 -31 -12 -197 47 -288 102 -91 55 -95 79
-43 271 l7 25 -27 -25 c-35 -31 -66 -91 -66 -125 0 -14 -4 -25 -9 -25 -20 0
-70 72 -113 161 l-46 94 -6 172 -6 173 40 26 c52 35 51 48 -3 40 -42 -7 -43
-6 -67 36 -19 34 -24 57 -23 108 2 140 108 360 189 392 55 21 129 16 162 -11
52 -41 128 -81 182 -97 194 -54 291 -94 414 -168 33 -20 70 -36 82 -36 12 0
28 -7 35 -17 8 -9 29 -22 47 -30 28 -11 36 -11 62 2 29 15 31 14 70 -21 22
-20 49 -51 60 -69 11 -17 40 -43 65 -56 35 -18 55 -40 87 -92 62 -103 83 -102
28 2 -60 113 -154 227 -232 281 -55 39 -82 66 -110 112 -20 34 -43 65 -50 69
-17 11 -110 11 -140 0 -14 -5 -85 -3 -177 5 -134 12 -162 17 -218 43 -73 35
-142 101 -193 187 -31 52 -35 65 -34 129 1 135 41 215 186 370 84 90 149 128
273 161 135 36 200 30 411 -34 150 -46 167 -54 265 -121 106 -74 141 -84 162
-50 16 25 0 67 -43 107 -67 66 -112 91 -210 116 -117 30 -207 70 -316 141 -91
59 -215 173 -285 260 -24 31 -54 58 -67 61 -30 8 -101 -50 -158 -130 -24 -34
-61 -85 -84 -113 -22 -29 -59 -86 -81 -128 -22 -41 -44 -77 -48 -79 -13 -8
-91 37 -91 53 0 20 97 285 123 336 48 96 238 402 264 427 32 30 69 37 183 34
49 -2 87 -9 110 -21z m-993 -1722 c-3 -10 -5 -4 -5 12 0 17 2 24 5 18 2 -7 2
-21 0 -30z m3601 -5631 c37 -37 90 -79 117 -92 28 -14 91 -53 141 -87 88 -61
92 -64 121 -135 73 -175 114 -348 114 -483 0 -75 -5 -105 -30 -177 -17 -49
-31 -107 -31 -129 l0 -42 -50 5 c-60 6 -70 13 -131 104 -26 40 -70 97 -97 128
-34 39 -63 88 -95 163 -70 167 -78 203 -87 438 -7 158 -14 230 -29 289 -12 44
-21 81 -21 83 0 10 17 -4 78 -65z m-3645 -2198 c5 -21 6 -111 4 -199 -4 -127
-12 -198 -40 -343 -46 -237 -58 -270 -119 -338 l-51 -55 -116 119 c-96 98
-130 126 -196 160 -44 23 -74 42 -67 42 7 0 39 12 70 28 124 60 314 292 437
534 28 54 54 96 60 95 5 -2 13 -21 18 -43z m-1682 -590 c154 -54 227 -66 459
-71 179 -4 247 -2 328 11 91 14 109 14 174 1 173 -36 345 -166 466 -355 20
-30 48 -69 64 -85 l27 -30 -10 -125 c-8 -95 -21 -162 -55 -279 -24 -85 -46
-156 -48 -158 -2 -2 -11 18 -20 45 -34 100 -103 178 -183 206 -70 24 -86 -2
-23 -34 60 -30 116 -94 141 -158 19 -48 22 -77 23 -182 0 -109 -4 -141 -33
-254 -42 -168 -61 -214 -128 -314 -57 -86 -158 -181 -220 -208 -76 -33 -308
-10 -568 55 -223 56 -250 72 -283 163 -25 70 -38 60 -32 -24 1 -16 -4 -28 -10
-28 -24 0 -187 91 -232 130 -26 23 -74 77 -108 121 l-60 80 16 31 c9 16 49 66
89 109 40 43 76 87 80 98 11 35 -33 180 -87 282 -28 55 -49 102 -45 105 11 12
293 74 335 74 40 0 49 -6 167 -112 69 -62 125 -116 125 -120 0 -3 -15 -16 -33
-27 -50 -31 -132 -121 -160 -177 -28 -56 -61 -153 -55 -160 3 -2 21 20 42 50
53 77 169 192 229 226 74 42 101 40 153 -15 57 -59 73 -116 85 -300 11 -171
23 -230 53 -250 23 -17 62 -20 71 -5 3 5 -2 47 -11 92 -15 74 -16 103 -5 278
14 220 27 308 66 434 l26 88 -26 53 c-14 29 -45 71 -70 94 -46 42 -170 110
-181 99 -3 -4 6 -22 20 -41 44 -57 76 -153 76 -224 0 -81 -17 -120 -71 -167
-51 -43 -73 -43 -146 0 -51 30 -243 191 -243 204 0 5 -14 17 -32 26 -46 24
-127 13 -294 -40 -161 -51 -152 -54 -209 54 -26 50 -37 86 -41 132 -5 60 -3
66 33 127 21 35 61 84 90 108 47 40 91 99 159 210 12 18 27 65 33 103 14 79
18 81 92 54z"/>
<path d="M4152 11878 c-19 -19 -15 -25 28 -42 50 -20 66 -20 74 -1 14 37 -72
73 -102 43z"/>
<path d="M4277 11863 c-6 -9 9 -127 19 -162 7 -23 34 8 34 39 0 14 3 29 6 33
4 3 39 -12 79 -34 46 -25 76 -36 80 -29 3 5 3 15 0 20 -4 6 10 3 29 -7 20 -9
39 -14 42 -10 10 10 -22 53 -62 84 -32 24 -48 28 -113 31 -62 3 -79 8 -92 24
-9 12 -19 16 -22 11z"/>
<path d="M4056 11594 c-34 -34 -12 -63 81 -106 62 -29 63 -30 117 -14 30 9 82
16 117 16 71 0 71 6 -3 32 -29 10 -62 30 -73 44 -15 19 -35 29 -71 35 -82 13
-151 11 -168 -7z"/>
<path d="M3401 11204 c-30 -13 -69 -36 -87 -49 -37 -28 -46 -30 -73 -14 -22
15 -57 7 -102 -24 -33 -22 -34 -24 -39 -108 -5 -82 -7 -87 -54 -154 -27 -39
-56 -76 -64 -82 -11 -9 -56 -13 -142 -13 -84 0 -144 -5 -177 -15 -63 -19 -147
-73 -151 -99 -5 -22 2 -21 93 18 95 39 252 59 295 36 10 -5 24 -27 31 -47 6
-21 29 -75 50 -121 l38 -83 -58 -137 c-32 -75 -67 -162 -77 -192 -16 -47 -35
-71 -137 -169 -91 -88 -119 -123 -127 -153 -18 -64 6 -138 44 -138 14 0 168
171 224 249 18 25 39 70 48 100 35 127 98 301 137 381 l42 85 70 -2 c60 -1
183 -32 282 -70 7 -3 13 -1 13 5 0 19 -106 81 -179 104 -60 19 -78 29 -97 58
-29 42 -30 58 -4 113 23 47 92 94 189 127 100 33 67 56 -38 24 -48 -14 -55
-14 -91 2 -23 10 -40 25 -40 33 1 33 29 133 43 155 9 13 60 56 114 97 54 41
101 79 105 84 24 33 -9 32 -81 -1z"/>
<path d="M2349 10191 c-24 -25 -29 -38 -29 -78 0 -66 -40 -144 -107 -210 -61
-60 -61 -66 2 -23 55 38 84 76 124 161 17 36 42 76 56 89 27 25 32 59 13 78
-18 18 -26 15 -59 -17z"/>
<path d="M3705 9833 c-57 -8 -51 -23 11 -23 68 0 106 8 98 21 -5 9 -53 10
-109 2z"/>
<path d="M3512 9789 c-41 -15 -140 -88 -147 -107 -14 -47 27 -80 67 -54 80 53
149 117 146 135 -4 25 -36 37 -66 26z"/>
<path d="M3236 9530 c-71 -62 -186 -271 -186 -337 0 -15 9 -36 20 -48 21 -23
49 -181 50 -282 1 -250 -161 -498 -325 -497 -66 0 -105 22 -185 103 -161 165
-377 262 -723 326 -218 40 -250 30 -64 -19 139 -37 353 -118 482 -184 90 -46
123 -69 185 -131 127 -128 212 -260 324 -504 39 -85 49 -98 67 -95 18 2 28 19
50 85 36 107 75 179 153 284 94 124 154 158 282 159 39 0 60 -6 90 -27 53 -36
152 -74 160 -62 7 12 12 8 -59 53 -134 84 -213 185 -221 279 -6 71 -36 125
-104 189 -56 51 -64 72 -97 245 -25 133 -20 158 62 293 78 127 103 174 103
190 0 19 -29 10 -64 -20z"/>
<path d="M2090 9360 c0 -10 58 -50 73 -50 16 0 6 30 -15 44 -25 18 -58 21 -58
6z"/>
<path d="M1564 9243 c-55 -96 -211 -300 -301 -394 -51 -53 -93 -100 -93 -104
0 -4 12 -5 27 -2 15 3 37 -1 50 -10 38 -25 128 2 210 63 31 23 31 25 19 57
-20 47 -28 141 -15 174 5 15 27 48 48 73 53 63 101 143 101 169 0 34 -16 25
-46 -26z"/>
<path d="M2147 9199 c46 -78 149 -149 240 -164 35 -5 45 -3 63 15 12 12 18 25
14 29 -5 4 -38 13 -73 20 -77 15 -119 35 -189 90 -62 49 -80 52 -55 10z"/>
<path d="M1345 8174 c-38 -25 -55 -27 -112 -9 -19 6 -23 4 -23 -13 0 -22 53
-72 76 -72 7 0 42 15 76 33 35 18 74 37 88 40 l25 7 -24 20 c-31 27 -61 25
-106 -6z"/>
<path d="M4285 7285 c-52 -9 -109 -32 -222 -91 -129 -67 -171 -95 -272 -181
-130 -111 -197 -188 -306 -346 -63 -91 -82 -111 -185 -188 -63 -48 -173 -119
-245 -159 l-130 -72 -85 -1 c-72 -2 -96 -7 -155 -34 -46 -21 -92 -33 -133 -36
-35 -3 -66 -8 -70 -12 -12 -12 23 -25 70 -25 79 0 78 1 77 -114 0 -89 -5 -114
-37 -211 l-37 -109 -143 -112 c-79 -61 -203 -146 -277 -188 -131 -75 -140 -83
-285 -236 -31 -33 -95 -45 -235 -44 -86 1 -111 5 -183 32 -84 32 -178 83 -244
135 -70 54 -38 13 96 -123 154 -155 153 -154 203 -411 25 -134 26 -141 10
-175 -20 -41 -21 -64 -5 -98 20 -45 68 -46 68 -2 0 13 9 35 20 49 11 14 20 29
20 33 0 11 115 197 188 304 36 52 66 96 68 98 1 2 27 4 59 6 43 3 78 14 139
45 97 49 151 89 342 252 80 68 151 127 158 131 24 14 82 -81 115 -189 17 -56
36 -105 41 -108 13 -8 13 43 0 120 -7 40 -7 93 0 160 17 169 8 151 141 275
106 98 165 160 342 355 l36 40 71 -38 c39 -21 75 -37 80 -35 5 2 -7 29 -27 60
l-35 57 19 58 c15 46 72 128 275 399 253 338 256 341 354 413 l99 73 65 -5
c80 -7 164 -37 227 -83 84 -60 146 -93 187 -100 23 -3 53 -15 67 -25 39 -27
79 -40 102 -33 18 6 17 9 -17 29 -98 59 -124 104 -167 286 -46 195 -64 207
-244 174z m-1003 -882 c-44 -56 -133 -138 -171 -158 -37 -19 -141 -33 -141
-19 0 6 30 24 67 43 74 36 223 132 243 156 28 33 30 13 2 -22z"/>
<path d="M2170 6477 c0 -94 -20 -183 -55 -242 -13 -23 -53 -73 -89 -112 -36
-39 -66 -75 -66 -81 0 -29 87 -29 143 -1 102 52 177 133 177 195 1 44 15 48
60 15 74 -54 79 -34 8 32 -54 51 -71 74 -91 128 -32 86 -65 149 -77 149 -6 0
-10 -35 -10 -83z"/>
<path d="M3529 5834 c-46 -29 -56 -61 -65 -199 -13 -194 -9 -373 11 -442 23
-81 136 -307 189 -376 24 -32 112 -135 196 -229 84 -93 150 -171 148 -173 -2
-2 -34 7 -71 20 -75 28 -167 34 -167 12 0 -8 19 -20 43 -27 97 -29 286 -146
331 -205 40 -52 83 -151 102 -230 25 -112 28 -115 74 -115 37 0 41 -2 38 -22
-3 -21 -9 -23 -58 -24 -30 0 -63 -1 -73 -2 -35 -4 -11 -25 50 -43 67 -21 118
-68 128 -117 22 -104 88 -108 114 -7 16 64 14 109 -8 136 -10 13 -28 44 -41
69 -12 25 -48 88 -80 140 -31 52 -73 124 -93 160 -20 36 -70 112 -111 170
l-76 105 0 75 0 76 61 59 c33 32 65 68 71 78 20 38 -3 29 -60 -24 -33 -31 -85
-65 -120 -80 l-61 -27 -48 57 c-26 31 -83 95 -125 144 -93 106 -156 199 -206
304 -30 64 -37 88 -36 138 1 77 51 229 100 310 32 51 38 70 42 133 5 89 -3
139 -26 151 -9 5 -46 12 -82 15 -52 5 -70 3 -91 -10z m551 -1258 c0 -15 -24
-66 -31 -66 -10 0 -12 53 -2 63 7 7 33 10 33 3z"/>
<path d="M800 5781 c-13 -25 -1 -137 16 -152 7 -6 33 -17 56 -23 35 -11 50
-24 83 -71 21 -31 41 -53 42 -48 2 6 -12 34 -32 63 -29 44 -35 61 -35 107 0
65 -25 108 -76 129 -42 18 -41 18 -54 -5z"/>
<path d="M1518 4375 c-3 -6 -16 -49 -28 -95 -20 -77 -22 -100 -15 -247 7 -171
0 -221 -35 -266 -28 -35 -25 -45 4 -18 54 50 60 81 61 281 1 117 6 202 14 231
12 45 12 133 -1 114z"/>
<path d="M2079 3981 c-23 -23 -29 -39 -29 -70 0 -23 -1 -44 -2 -48 -3 -14 75
-52 119 -59 22 -3 49 -2 58 4 15 8 10 12 -29 27 -41 16 -61 35 -37 35 5 0 18
18 29 40 l20 41 -32 29 c-39 38 -60 38 -97 1z"/>
<path d="M7397 10194 c-41 -58 -45 -72 -46 -171 l-1 -81 -90 -85 c-99 -93
-233 -188 -301 -213 -72 -27 -215 -22 -324 10 -122 37 -248 92 -276 122 -27
28 -69 33 -69 7 0 -23 101 -118 181 -170 35 -23 90 -49 122 -57 66 -17 121
-60 252 -197 142 -149 215 -286 273 -509 38 -147 44 -207 32 -323 -19 -185
-72 -277 -215 -373 -96 -65 -285 -160 -355 -179 -82 -22 -136 -49 -178 -88
l-32 -31 -78 11 c-99 15 -252 60 -275 81 -30 27 -210 301 -264 402 -28 52 -63
131 -78 175 -32 92 -71 138 -113 133 -37 -4 -54 -41 -49 -110 4 -69 30 -111
166 -265 50 -56 117 -142 149 -191 61 -89 142 -161 241 -212 57 -29 155 -50
234 -50 55 0 69 -3 74 -17 10 -29 55 -73 75 -73 13 0 20 10 25 30 8 42 26 49
140 56 l98 7 43 -47 c24 -26 48 -60 54 -77 5 -16 14 -27 19 -24 5 3 -1 29 -12
58 -38 95 -45 87 78 87 91 0 133 -6 254 -35 164 -41 174 -47 258 -170 88 -129
130 -210 157 -309 l27 -97 -19 -42 c-10 -23 -50 -88 -88 -145 -38 -56 -65
-106 -61 -110 10 -10 38 28 144 193 71 111 99 147 119 152 52 15 274 8 327
-10 61 -21 209 -137 247 -194 105 -159 147 -330 164 -672 l7 -144 53 -50 c68
-63 174 -148 241 -192 82 -55 202 -117 213 -110 5 3 10 17 10 31 0 38 -108
132 -192 167 -19 8 -38 19 -41 24 -3 5 -24 92 -47 193 -82 363 -206 672 -327
814 -32 37 -65 80 -73 94 -8 14 -55 76 -103 136 -49 61 -123 162 -164 224 -42
61 -77 112 -79 112 -2 0 -24 -15 -48 -34 -60 -46 -107 -61 -191 -60 -110 0
-191 52 -248 158 -20 36 -22 56 -22 177 l0 136 42 84 c30 62 50 89 70 98 36
17 323 51 432 51 47 0 110 7 141 16 53 15 58 14 112 -6 95 -35 204 -115 327
-238 64 -64 126 -130 138 -147 18 -24 24 -27 32 -16 7 11 14 7 30 -20 25 -40
26 -58 6 -65 -34 -13 -6 -73 90 -195 75 -94 109 -117 144 -93 11 8 21 22 21
30 0 22 -47 93 -100 149 -26 27 -64 83 -85 124 -38 76 -72 114 -315 359 -52
52 -130 120 -174 150 -75 53 -78 56 -73 89 5 26 2 33 -10 33 -9 0 -102 -22
-208 -50 -214 -56 -321 -70 -442 -59 -106 9 -173 44 -221 115 -27 38 -32 55
-27 79 3 16 10 75 14 130 5 55 12 107 15 116 5 11 -12 56 -45 120 -28 57 -71
163 -95 234 -24 72 -53 155 -64 185 -61 170 20 389 182 491 29 18 65 45 79 60
30 31 102 54 215 70 161 22 175 28 54 24 -75 -3 -140 -11 -189 -25 -87 -25
-87 -25 -97 70 -6 53 -3 76 14 127 12 34 22 67 22 72 0 23 -22 9 -53 -35z"/>
<path d="M5616 10175 c-19 -45 -47 -51 -146 -31 -118 24 -123 20 -36 -24 43
-22 87 -40 98 -40 20 0 19 -15 -9 -94 -18 -54 -17 -55 18 -13 25 31 37 37 68
37 20 0 46 7 57 15 10 8 26 15 34 15 35 0 169 -78 221 -130 58 -58 246 -170
286 -170 26 0 53 25 53 50 0 24 -42 73 -83 99 -18 11 -69 33 -112 50 -381 141
-366 133 -383 180 -7 17 -17 45 -23 61 -15 39 -25 38 -43 -5z"/>
<path d="M7854 6709 c-16 -17 -75 -72 -131 -121 -90 -78 -122 -118 -95 -118
34 0 229 168 258 222 29 55 13 64 -32 17z"/>
<path d="M8110 4731 c-41 -3 -81 -10 -88 -14 -23 -15 -6 -32 34 -34 69 -2 168
-19 191 -31 13 -7 32 -30 42 -51 30 -58 102 -144 112 -134 13 13 -26 127 -61
183 -48 75 -94 91 -230 81z"/>
<path d="M7288 4100 c-25 -15 -36 -63 -43 -200 -4 -69 -10 -143 -15 -165 -5
-22 -27 -126 -49 -232 -97 -463 -182 -732 -270 -863 -10 -14 -29 -53 -44 -88
-32 -75 -92 -167 -160 -242 -27 -30 -57 -72 -68 -92 -13 -25 -29 -40 -47 -44
-66 -16 -133 -56 -210 -126 -45 -41 -119 -96 -165 -122 -79 -45 -84 -47 -157
-45 -41 2 -151 -3 -245 -9 -93 -7 -178 -12 -187 -12 -10 0 -18 -4 -18 -9 0 -5
66 -12 148 -16 105 -4 167 -12 217 -27 42 -13 100 -22 145 -22 72 -1 78 1 160
48 47 28 119 82 160 122 88 83 156 134 181 134 21 0 23 -7 44 -120 9 -47 29
-137 45 -201 38 -148 46 -219 30 -249 -6 -12 -36 -48 -65 -80 -30 -32 -61 -73
-70 -91 -10 -17 -47 -75 -83 -127 l-66 -96 -4 -93 c-3 -51 -1 -104 2 -119 l7
-26 102 4 c99 3 104 4 165 42 63 39 69 51 40 70 -12 7 -32 2 -77 -22 -62 -32
-91 -40 -91 -23 0 27 176 405 215 463 108 158 99 149 154 142 42 -5 56 -2 101
22 55 30 198 159 188 169 -7 8 -57 -17 -169 -84 -87 -53 -110 -60 -126 -38
-18 23 -122 283 -138 343 -8 32 -18 106 -21 164 -9 156 13 208 160 386 37 43
77 91 90 105 13 14 34 48 46 76 23 55 58 91 169 176 54 42 81 57 105 57 36 0
55 12 79 52 9 15 45 40 80 58 63 31 66 31 140 21 90 -13 254 -63 317 -98 l45
-24 -28 23 c-92 79 -226 136 -339 145 -58 4 -89 11 -103 23 -11 9 -41 29 -66
44 -70 40 -74 57 -73 291 0 110 3 266 7 348 7 140 7 147 -11 147 -15 0 -21 10
-26 41 -4 26 -17 52 -36 70 -30 31 -45 34 -72 19z"/>
<path d="M7488 1927 c-91 -50 -173 -106 -164 -114 3 -3 42 15 86 40 124 71
120 71 120 -11 0 -44 5 -73 13 -80 25 -20 184 -37 220 -23 44 17 31 28 -41 33
-37 3 -78 10 -90 17 -21 11 -22 16 -16 81 7 73 -2 101 -35 99 -9 0 -51 -19
-93 -42z"/>
<path d="M7484 1293 c-10 -15 -28 -36 -41 -46 -19 -15 -23 -28 -23 -70 0 -53
16 -97 36 -104 7 -2 13 22 17 64 4 38 14 92 23 122 18 62 14 73 -12 34z"/>
</g>
</svg>
